<?xml version="1.0" encoding="UTF-8"?>
<svg version="1.1" xmlns="http://www.w3.org/2000/svg" width="512" height="512">
<path d="M0 0 C168.96 0 337.92 0 512 0 C512 168.96 512 337.92 512 512 C343.04 512 174.08 512 0 512 C0 343.04 0 174.08 0 0 Z " fill="#303030" transform="translate(0,0)"/>
<path d="M0 0 C4.03188681 1.40207956 6.95822448 3.31385875 10.3125 5.9375 C14.88864679 9.45437338 19.54380172 12.81166412 24.3125 16.0625 C30.91923938 20.5710445 37.49903288 25.11613951 44.0625 29.6875 C45.0323584 30.36264648 46.0022168 31.03779297 47.00146484 31.73339844 C51.0075895 34.52249753 55.01304918 37.31255091 59.01855469 40.10253906 C72.98597788 49.83493777 72.98597788 49.83493777 87 59.5 C96.37013579 65.92600068 105.6888112 72.42589496 115.01220703 78.91943359 C119.84020773 82.28143898 124.67017987 85.64060919 129.5 89 C131.41667662 90.33331902 133.33334328 91.66665237 135.25 93 C136.19875 93.66 137.1475 94.32 138.125 95 C169.75 117 169.75 117 172.62670898 119.0012207 C174.5376392 120.33054229 176.44860907 121.65980689 178.35961914 122.98901367 C183.23938502 126.38325348 188.11839466 129.7785719 192.99609375 133.17578125 C202.00752832 139.45069365 211.02431806 145.71634698 220.08251953 151.92358398 C226.20642233 156.12701458 232.28429271 160.39545432 238.36132812 164.66625977 C243.31260397 168.1396347 248.29276052 171.56427641 253.3046875 174.94946289 C277.64135495 191.42409013 305.85359505 211.13062425 312.8515625 241.72265625 C313.32036906 244.25472686 313.77258957 246.78993242 314.20703125 249.328125 C315.23814058 254.10271991 317.03935836 258.29932339 319.109375 262.70703125 C319.40328125 263.46371094 319.6971875 264.22039062 320 265 C319.67 265.66 319.34 266.32 319 267 C318.28457031 266.32195312 317.56914062 265.64390625 316.83203125 264.9453125 C287.64773445 237.5574305 249.40429933 211.84820698 208.33666992 212.7355957 C197.0535765 212.93772168 188.90164935 210.99800732 178.83621216 205.9090271 C176.08159806 204.54533998 173.25494967 203.37205625 170.41796875 202.19140625 C169.39388916 201.75868408 168.36980957 201.32596191 167.31469727 200.88012695 C165.76673462 200.22790161 165.76673462 200.22790161 164.1875 199.5625 C163.07366943 199.09223389 161.95983887 198.62196777 160.81225586 198.13745117 C157.5419983 196.75712477 154.27111802 195.37828584 151 194 C150.10249023 193.62166016 149.20498047 193.24332031 148.28027344 192.85351562 C142.85454883 190.56655262 137.4275386 188.28265409 132 186 C116.99108024 179.68771471 101.99387021 173.34794927 87 167 C90.86887828 165.62030092 94.16080168 166.2658768 98.16796875 166.85546875 C98.87076965 166.95692703 99.57357056 167.05838531 100.29766846 167.16291809 C102.59546738 167.49683088 104.89141902 167.84198809 107.1875 168.1875 C108.79102163 168.42303978 110.39461943 168.65806149 111.99829102 168.89257812 C121.77964965 170.33117122 131.54367072 171.8667114 141.29931641 173.47045898 C156.48855418 175.93549946 171.75336756 177.92632486 187 180 C184.3907327 176.68236671 181.82335766 173.81876386 178.625 171.0625 C174.20276951 167.15706863 170.02167267 163.07091925 165.875 158.875 C161.7719104 154.7278438 157.64590967 150.73533748 153.1875 146.96875 C149.34626584 143.51163925 145.76700512 139.78548844 142.1328125 136.11328125 C139.17059157 133.13199023 136.21292402 130.21436684 133 127.5 C129.11285239 124.21603046 125.57645583 120.61386156 122 117 C116.6879844 111.61461721 116.6879844 111.61461721 111.0625 106.5625 C106.25103638 102.49925535 101.91823345 97.94173997 97.49072266 93.47119141 C93.83169113 89.7902331 90.12268808 86.27841337 86.15234375 82.93359375 C82.32041767 79.49111932 78.75498084 75.77333598 75.13256836 72.11303711 C72.17043018 69.13182682 69.21283566 66.2142922 66 63.5 C62.11285239 60.21603046 58.57645583 56.61386156 55 53 C49.6879844 47.61461721 49.6879844 47.61461721 44.0625 42.5625 C39.25261065 38.50058481 34.92113288 33.94471917 30.49511719 29.47558594 C26.79509476 25.75335227 23.04269994 22.1954539 19.03125 18.80859375 C14.62906712 14.88895784 10.54741003 10.61889553 6.40869141 6.42480469 C4.28191657 4.27370279 2.14092489 2.13701095 0 0 Z " fill="#FCFCFC" transform="translate(80,138)"/>
<path d="M0 0 C4.2690778 3.99491684 7.5742273 8.35519259 10.9375 13.125 C12.09156817 14.74281543 13.24654632 16.35998204 14.40234375 17.9765625 C14.99515137 18.80704102 15.58795898 19.63751953 16.19873047 20.49316406 C19.09464785 24.52342696 22.04734572 28.51121826 25 32.5 C30.08265951 39.37658063 35.11003368 46.29033877 40.10546875 53.23046875 C44.03392016 58.68083838 48.00705268 64.09674016 52 69.5 C56.53751085 75.64016369 61.03959416 81.80359742 65.5 88 C79.19742576 107.01829268 93.08766855 125.90830606 107.64111328 144.28222656 C109.93512109 147.18208983 112.21688048 150.09156234 114.5 153 C115.41660917 154.16671184 116.33327582 155.33337853 117.25 156.5 C122.75 163.5 122.75 163.5 124.12475586 165.24975586 C125.04215009 166.4173041 125.95963067 167.58478449 126.87719727 168.75219727 C129.15844245 171.6548279 131.43821214 174.55859274 133.71484375 177.46484375 C134.62238212 178.62240658 135.52993419 179.77995868 136.4375 180.9375 C136.8806958 181.5037207 137.3238916 182.06994141 137.78051758 182.65332031 C140.28028444 185.83916571 142.80552097 189.00183144 145.359375 192.14453125 C146.19190796 193.17235718 146.19190796 193.17235718 147.04125977 194.22094727 C148.12090859 195.55165487 149.20460122 196.87909394 150.29272461 198.20288086 C154 202.77767225 154 202.77767225 154 205 C151.15798141 203.67116216 148.76778831 202.17328895 146.3046875 200.234375 C145.59787842 199.68104492 144.89106934 199.12771484 144.1628418 198.55761719 C143.407854 197.96110352 142.65286621 197.36458984 141.875 196.75 C140.25397095 195.47908414 138.63287529 194.20825323 137.01171875 192.9375 C136.1820459 192.28523437 135.35237305 191.63296875 134.49755859 190.9609375 C130.57078985 187.87786746 126.62927101 184.8138503 122.6875 181.75 C121.9332373 181.1631543 121.17897461 180.57630859 120.40185547 179.97167969 C116.11111985 176.63475349 111.81117993 173.3104669 107.5 170 C103.84444957 167.19231488 100.19403897 164.37830861 96.55078125 161.5546875 C95.77283203 160.95188965 94.99488281 160.3490918 94.19335938 159.72802734 C92.61115624 158.49659566 91.03298784 157.25996167 89.45898438 156.01806641 C86.35352966 153.57076088 83.29466123 151.19212064 79.98046875 149.03125 C71.53752937 143.39375977 68.33575964 134.50872922 64.21484375 125.58007812 C62.43393991 121.79780486 60.47561618 118.12073211 58.5 114.4375 C53.66680667 105.33432832 48.95732112 96.16863627 44.25 87 C38.23505555 75.28668712 32.20468762 63.58194366 26.13574219 51.89648438 C23.08696427 46.02594632 20.04436931 40.15231803 17.01171875 34.2734375 C16.33554591 32.963371 15.65935784 31.65331237 14.9831543 30.34326172 C14.00826772 28.45449873 13.03375329 26.56555018 12.06069946 24.67584229 C8.50126598 17.7635193 4.88436277 10.90058617 1.06640625 4.12695312 C0 2 0 2 0 0 Z " fill="#FBFBFB" transform="translate(196,111)"/>
<path d="M0 0 C5.36217812 1.18456738 10.28205933 3.53518778 15.3125 5.6875 C16.33279297 6.10966797 17.35308594 6.53183594 18.40429688 6.96679688 C28.21333364 11.17066978 33.95045543 15.4704609 38.5 25.1875 C39.03753906 26.25387695 39.03753906 26.25387695 39.5859375 27.34179688 C42.13538276 32.59385173 42.13538276 32.59385173 41 36 C39.60272049 34.45964394 38.20725163 32.91764536 36.8125 31.375 C36.03519531 30.51648438 35.25789063 29.65796875 34.45703125 28.7734375 C32.81699517 26.92220441 31.23365717 25.01918579 29.7109375 23.0703125 C26.56517964 19.27537184 22.74140948 16.44092793 18.8125 13.5 C18.06234619 12.93120117 17.31219238 12.36240234 16.53930664 11.77636719 C11.73176617 8.17317232 6.85548017 4.86192914 1.58984375 1.953125 C1.06519531 1.63859375 0.54054688 1.3240625 0 1 C0 0.67 0 0.34 0 0 Z " fill="#0F0F0F" transform="translate(341,343)"/>
<path d="M0 0 C2.96404505 2.80804268 5.44499019 5.18315774 7 9 C6.01 9.33 5.02 9.66 4 10 C3.32845067 8.71086513 2.66291141 7.41859796 2 6.125 C1.62875 5.40570313 1.2575 4.68640625 0.875 3.9453125 C0 2 0 2 0 0 Z " fill="#DADADA" transform="translate(196,111)"/>
<path d="M0 0 C4.43458973 1.3937282 6.87378374 3.60582235 10 7 C6.433255 7 5.89456323 6.36308045 3.3125 4.0625 C2.68988281 3.51722656 2.06726563 2.97195312 1.42578125 2.41015625 C0.95527344 1.94480469 0.48476562 1.47945312 0 1 C0 0.67 0 0.34 0 0 Z " fill="#C3C3C3" transform="translate(80,138)"/>
<path d="M0 0 C3.14737182 0.69941596 6.02588876 1.76078698 9 3 C8.67 3.99 8.34 4.98 8 6 C6.66402348 5.19185349 5.331275 4.37836819 4 3.5625 C3.2575 3.11003906 2.515 2.65757812 1.75 2.19140625 C1.1725 1.79824219 0.595 1.40507812 0 1 C0 0.67 0 0.34 0 0 Z " fill="#333333" transform="translate(341,343)"/>
</svg>
