<?xml version="1.0" encoding="UTF-8"?>
<svg version="1.1" xmlns="http://www.w3.org/2000/svg" width="512" height="512">
<path d="M0 0 C1.64347805 -0.00346239 3.28695377 -0.00823084 4.93042469 -0.01418173 C9.41803555 -0.02664153 13.90545366 -0.02054435 18.39306498 -0.01122308 C23.24385758 -0.00441225 28.09461793 -0.01492387 32.94540405 -0.02316284 C42.43683644 -0.03648071 51.92819753 -0.03363111 61.41963267 -0.02492492 C69.13568757 -0.01814112 76.85172252 -0.01723467 84.56777954 -0.02049637 C85.66728276 -0.02095607 86.76678598 -0.02141577 87.89960748 -0.0218894 C90.1334463 -0.0228486 92.36728512 -0.02382124 94.60112393 -0.02480717 C115.53238981 -0.03335536 136.46361623 -0.02353588 157.39487565 -0.00740607 C175.34261589 0.00599658 193.29029792 0.00366833 211.23803711 -0.01016235 C232.09601518 -0.02622824 252.9539587 -0.03253144 273.8119421 -0.02332556 C276.037419 -0.02236995 278.2628959 -0.02142683 280.4883728 -0.02049637 C282.13070404 -0.01980213 282.13070404 -0.01980213 283.80621368 -0.01909386 C291.51019136 -0.01650701 299.21414706 -0.02086842 306.91812134 -0.02793503 C316.31070712 -0.03636142 325.70321771 -0.03404591 335.09579492 -0.0180928 C339.8851372 -0.01022545 344.67435426 -0.00709226 349.46369553 -0.01704025 C353.85313521 -0.02601951 358.24233432 -0.02100137 362.63175237 -0.0051076 C364.21436686 -0.00177343 365.79700192 -0.00342292 367.37960303 -0.01073496 C379.5234146 -0.06251173 390.60059049 1.30564475 401.52807617 6.88095093 C402.53644531 7.39262817 402.53644531 7.39262817 403.56518555 7.91464233 C419.18188307 16.26060295 430.91811381 31.03046399 436.3002516 47.78467846 C438.7487324 56.4852387 438.95042359 64.89311094 438.9090271 73.85287476 C438.91248949 75.4963528 438.91725794 77.13982852 438.92320883 78.78329945 C438.93566863 83.2709103 438.92957145 87.75832841 438.92025018 92.24593973 C438.91343935 97.09673234 438.92395097 101.94749269 438.93218994 106.79827881 C438.94550781 116.2897112 438.94265821 125.78107228 438.93395202 135.27250743 C438.92716822 142.98856232 438.92626177 150.70459728 438.92952347 158.4206543 C438.92998317 159.52015752 438.93044287 160.61966074 438.9309165 161.75248224 C438.9318757 163.98632106 438.93284834 166.22015987 438.93383427 168.45399868 C438.94238246 189.38526457 438.93256298 210.31649099 438.91643317 231.2477504 C438.90303052 249.19549065 438.90535877 267.14317267 438.91918945 285.09091187 C438.93525534 305.94888994 438.94155854 326.80683346 438.93235266 347.66481686 C438.93139705 349.89029375 438.93045393 352.11577065 438.92952347 354.34124756 C438.92906064 355.43613505 438.92859781 356.53102254 438.92812096 357.65908843 C438.9255341 365.36306611 438.92989552 373.06702182 438.93696213 380.77099609 C438.94538852 390.16358187 438.94307301 399.55609247 438.9271199 408.94866967 C438.91925255 413.73801195 438.91611936 418.52722902 438.92606735 423.31657028 C438.93504661 427.70600997 438.93002847 432.09520908 438.9141347 436.48462713 C438.91080053 438.06724161 438.91245002 439.64987668 438.91976206 441.23247778 C438.97153883 453.37628936 437.60338235 464.45346524 432.02807617 475.38095093 C431.68695801 476.05319702 431.34583984 476.72544312 430.99438477 477.4180603 C422.64842415 493.03475783 407.87856311 504.77098857 391.12434864 510.15312636 C382.4237884 512.60160715 374.01591616 512.80329835 365.05615234 512.76190186 C363.4126743 512.76536425 361.76919858 512.7701327 360.12572765 512.77608359 C355.63811679 512.78854339 351.15069869 512.7824462 346.66308737 512.77312493 C341.81229476 512.76631411 336.96153441 512.77682573 332.11074829 512.7850647 C322.6193159 512.79838256 313.12795482 512.79553297 303.63651967 512.78682677 C295.92046478 512.78004297 288.20442982 512.77913652 280.4883728 512.78239822 C279.38886958 512.78285792 278.28936636 512.78331762 277.15654486 512.78379125 C274.92270604 512.78475046 272.68886723 512.7857231 270.45502841 512.78670903 C249.52376253 512.79525722 228.59253611 512.78543774 207.6612767 512.76930793 C189.71353645 512.75590527 171.76585443 512.75823353 153.81811523 512.77206421 C132.96013716 512.78813009 112.10219364 512.7944333 91.24421024 512.78522742 C89.01873335 512.7842718 86.79325645 512.78332869 84.56777954 512.78239822 C83.47289205 512.7819354 82.37800456 512.78147257 81.24993867 512.78099572 C73.54596099 512.77840886 65.84200528 512.78277027 58.13803101 512.78983688 C48.74544522 512.79826328 39.35293463 512.79594777 29.96035743 512.77999465 C25.17101515 512.7721273 20.38179808 512.76899411 15.59245682 512.77894211 C11.20301713 512.78792136 6.81381802 512.78290322 2.42439997 512.76700945 C0.84178549 512.76367528 -0.74084958 512.76532478 -2.32345068 512.77263682 C-14.46726226 512.82441358 -25.54443814 511.45625711 -36.47192383 505.88095093 C-37.48029297 505.36927368 -37.48029297 505.36927368 -38.5090332 504.84725952 C-54.12573073 496.5012989 -65.86196147 481.73143787 -71.24409926 464.9772234 C-73.69258005 456.27666316 -73.89427125 447.86879092 -73.85287476 438.9090271 C-73.85633715 437.26554905 -73.8611056 435.62207333 -73.86705649 433.97860241 C-73.87951629 429.49099155 -73.8734191 425.00357344 -73.86409783 420.51596212 C-73.85728701 415.66516952 -73.86779863 410.81440917 -73.8760376 405.96362305 C-73.88935546 396.47219066 -73.88650587 386.98082957 -73.87779967 377.48939443 C-73.87101587 369.77333953 -73.87010942 362.05730458 -73.87337112 354.34124756 C-73.87383082 353.24174434 -73.87429052 352.14224112 -73.87476415 351.00941962 C-73.87572336 348.7755808 -73.876696 346.54174198 -73.87768193 344.30790317 C-73.88623012 323.37663729 -73.87641064 302.44541086 -73.86028083 281.51415145 C-73.84687817 263.56641121 -73.84920643 245.61872918 -73.86303711 227.67098999 C-73.87910299 206.81301192 -73.8854062 185.9550684 -73.87620032 165.097085 C-73.8752447 162.8716081 -73.87430159 160.6461312 -73.87337112 158.4206543 C-73.8729083 157.32576681 -73.87244547 156.23087932 -73.87196862 155.10281342 C-73.86938176 147.39883574 -73.87374317 139.69488004 -73.88080978 131.99090576 C-73.88923618 122.59831998 -73.88692067 113.20580939 -73.87096755 103.81323218 C-73.8631002 99.0238899 -73.85996701 94.23467284 -73.86991501 89.44533157 C-73.87889426 85.05589189 -73.87387612 80.66669278 -73.85798235 76.27727473 C-73.85464818 74.69466024 -73.85629768 73.11202518 -73.86360972 71.52942407 C-73.91538649 59.3856125 -72.54723001 48.30843661 -66.97192383 37.38095093 C-66.63080566 36.70870483 -66.2896875 36.03645874 -65.93823242 35.34384155 C-57.5922718 19.72714403 -42.82241077 7.99091329 -26.0681963 2.6087755 C-17.36763606 0.1602947 -8.95976382 -0.04139649 0 0 Z " fill="#EDEDED" transform="translate(73.471923828125,-0.380950927734375)"/>
<path d="M0 0 C3.79773589 1.35150743 6.67194413 3.0652784 9.875 5.5 C14.1284227 8.67405712 18.453967 11.68260395 22.8828125 14.60546875 C24.21659157 15.49029625 25.55007811 16.37556484 26.88330078 17.26123047 C27.56459045 17.71375183 28.24588013 18.16627319 28.94781494 18.63250732 C32.24593002 20.8302371 35.52997772 23.04860292 38.8125 25.26953125 C39.47046066 25.71468079 40.12842133 26.15983032 40.80632019 26.61846924 C42.8711606 28.01606572 44.93559508 29.41426036 47 30.8125 C48.482315 31.81595563 49.96465604 32.8193728 51.44702148 33.82275391 C55.2303821 36.38383561 59.01328921 38.94558635 62.79608154 41.50750732 C65.60306286 43.40839392 68.41038443 45.30877764 71.2177124 47.20915222 C86.80606652 57.76174522 102.38276033 68.33125508 117.9453125 78.921875 C121.10868231 81.07393732 124.27296974 83.2246445 127.4375 85.375 C139.20805684 93.37385483 150.96828428 101.38733762 162.70849609 109.43066406 C165.08230572 111.05636706 167.4570354 112.68071801 169.83203125 114.3046875 C178.60690639 120.30488812 187.37582464 126.31356463 196.1328125 132.33984375 C198.66773869 134.08427489 201.20420008 135.82643213 203.7421875 137.56640625 C213.51317637 144.26806026 223.24413995 151.02642349 232.96484375 157.80078125 C237.01270881 160.62066448 241.06784538 163.42962546 245.12890625 166.23046875 C254.70886424 172.84577313 264.1992176 179.48265342 273.33789062 186.70019531 C275.99959751 188.7817064 278.69545965 190.81801725 281.38671875 192.86108398 C306.65844636 212.07123557 326.14074945 229.89251442 331.3671875 262.37109375 C332.15560103 266.89230469 333.06349172 271.38243105 334 275.875 C334.24919189 277.08796753 334.24919189 277.08796753 334.50341797 278.32543945 C335.22992227 281.76972704 335.99926722 284.9979511 337.1875 288.3203125 C338.02999048 291.09891092 338.02672969 292.33050282 337 295 C336.38253906 294.11699219 335.76507813 293.23398437 335.12890625 292.32421875 C328.10204884 282.3386109 320.64864948 272.85034782 312.5 263.75 C311.24703125 262.35007812 311.24703125 262.35007812 309.96875 260.921875 C294.00039353 244.4630518 265.34591396 225.30303468 241.74981689 223.86264038 C237.68983276 223.8068358 233.63690171 223.94217386 229.57885742 224.05810547 C207.963507 224.670677 191.91629092 220.54262851 172.61903381 211.15805054 C165.31076826 207.60708238 157.82588294 204.58139701 150.2746582 201.59066772 C146.47381827 200.08151969 142.68472489 198.54345698 138.89453125 197.0078125 C137.73306076 196.53818336 137.73306076 196.53818336 136.54812622 196.05906677 C125.91529786 191.75785807 115.3022038 187.40819277 104.6875 183.0625 C103.69741943 182.65720062 102.70733887 182.25190125 101.68725586 181.83432007 C96.12450706 179.55701897 90.56209784 177.2788905 85 175 C87.8796942 174.14086902 90.06568618 173.94967938 93.03857422 174.34204102 C93.83241516 174.4430864 94.6262561 174.54413177 95.44415283 174.64823914 C96.30562927 174.76560928 97.16710571 174.88297943 98.0546875 175.00390625 C98.96837097 175.12236404 99.88205444 175.24082184 100.82342529 175.36286926 C103.84156456 175.75584658 106.85821792 176.1592477 109.875 176.5625 C111.97044535 176.836827 114.06598722 177.11041768 116.16162109 177.38330078 C121.65803364 178.10076151 127.15327688 178.82678147 132.64819336 179.55560303 C141.29391798 180.70189047 149.94074576 181.83977132 158.58795166 182.974823 C161.58755222 183.37006569 164.58652412 183.76983449 167.58544922 184.17016602 C169.42413734 184.41304663 171.26284094 184.65581015 173.1015625 184.8984375 C173.93282654 185.0106514 174.76409058 185.1228653 175.62054443 185.23847961 C176.77638031 185.38992683 176.77638031 185.38992683 177.95556641 185.54443359 C178.61988678 185.63292572 179.28420715 185.72141785 179.96865845 185.81259155 C182.3207647 186.02959326 184.63925129 186.0299113 187 186 C181.53467721 180.51138028 176.06656183 175.02555908 170.59498596 169.54317379 C168.05367641 166.99667306 165.51329395 164.44926235 162.97509766 161.8996582 C160.51992136 159.43351795 158.06222208 156.96991699 155.60284424 154.507967 C154.22098095 153.12339044 152.84165925 151.73627877 151.46240234 150.34910583 C150.60211426 149.48874222 149.74182617 148.6283786 148.85546875 147.74194336 C148.10934326 146.99359726 147.36321777 146.24525116 146.59448242 145.47422791 C144.5508519 143.52531986 142.4825366 141.68074499 140.34204102 139.84303284 C135.2177203 135.38787044 130.45737907 130.58201551 125.671875 125.76953125 C124.65928202 124.75501483 123.64645796 123.74072899 122.63342285 122.72665405 C120.46693842 120.55702906 118.30201234 118.38586561 116.13830566 116.21347046 C112.71055192 112.77209532 109.27889861 109.33462614 105.84667969 105.89770508 C97.94309504 97.98212223 90.04455119 90.06151574 82.14605713 82.14085388 C74.90170768 74.87627715 67.65627538 67.61278904 60.40677261 60.35335445 C57.00135602 56.94298295 53.59838608 53.53019506 50.19732666 50.11547852 C48.07456513 47.98521048 45.94969137 45.8570587 43.82426453 43.72945023 C42.84628866 42.74961667 41.86917019 41.7689264 40.89302063 40.78727341 C35.96726281 35.83464234 31.0079317 30.99585058 25.69074249 26.46278954 C22.99547847 24.13091225 20.48250746 21.62584019 17.96875 19.1015625 C17.4473645 18.58113373 16.925979 18.06070496 16.38879395 17.52450562 C15.30549553 16.44187933 14.2234249 15.35802313 13.14257812 14.27294922 C11.47901592 12.6039473 9.81007075 10.94045846 8.140625 9.27734375 C7.08301187 8.21907116 6.02570826 7.16048914 4.96875 6.1015625 C4.46887573 5.60371246 3.96900146 5.10586243 3.45397949 4.59292603 C0 1.11500094 0 1.11500094 0 0 Z " fill="#313131" transform="translate(88,120)"/>
<path d="M0 0 C3.7165452 3.57667522 6.97674755 7.34886046 10.125 11.4375 C11.10015755 12.69148625 12.07542083 13.94539028 13.05078125 15.19921875 C13.54271973 15.8339209 14.0346582 16.46862305 14.54150391 17.12255859 C16.34601583 19.44540706 18.1651124 21.75650547 19.98583984 24.06665039 C25.28765433 30.79392512 30.54611703 37.554612 35.80126953 44.31835938 C41.17538892 51.23236216 46.58230036 58.12012567 52 65 C58.63094911 73.42056586 65.2324962 81.86308626 71.80786133 90.32714844 C75.35838946 94.89551081 78.92077221 99.45409522 82.5 104 C95.19626906 120.13037044 107.71958657 136.3933984 120.18383789 152.70336914 C123.44859031 156.97458149 126.72010914 161.24040148 130 165.5 C133.77998383 170.40970437 137.5491904 175.32750398 141.3125 180.25 C141.85382568 180.95801758 142.39515137 181.66603516 142.95288086 182.39550781 C145.82935019 186.15844691 148.70434618 189.92250577 151.578125 193.6875 C152.16166748 194.4515918 152.74520996 195.21568359 153.34643555 196.00292969 C154.46036428 197.46154401 155.57383536 198.920508 156.68676758 200.37988281 C159.41695363 203.9541655 162.17269189 207.50146047 165 211 C164.67 211.66 164.34 212.32 164 213 C155.8625602 206.76033768 147.75573535 200.48263555 139.66552734 194.18188477 C135.2053745 190.70999149 130.7353543 187.25175819 126.25 183.8125 C121.33606629 180.03962955 116.45581259 176.2268733 111.58984375 172.39257812 C105.93721772 167.94144639 100.25561924 163.52789407 94.56762695 159.12207031 C93.1246353 158.00235213 91.687605 156.87491325 90.25634766 155.74023438 C88.70669912 154.54504992 87.11985958 153.3970461 85.50537109 152.29101562 C77.895049 146.83910455 74.18072497 140.07222596 70.125 131.875 C69.43496128 130.52508282 68.74237831 129.17646341 68.04736328 127.82910156 C66.66120905 125.13828181 65.28487637 122.44281903 63.91601562 119.74316406 C61.34175504 114.68719843 58.61702712 109.71649778 55.875 104.75 C51.5463175 96.85305935 47.26334301 88.93239481 43 81 C38.21296265 72.09467376 33.39498271 63.20725301 28.54345703 54.33691406 C24.02181022 46.06096653 19.5593026 37.75360507 15.10107422 29.44335938 C11.09936816 21.99863793 7.03108235 14.59477751 2.84326172 7.25292969 C0 2.21463606 0 2.21463606 0 0 Z " fill="#323232" transform="translate(208,97)"/>
<path d="M0 0 C13.13039896 3.02110451 32.9784254 9.69801481 41.47265625 20.5390625 C46.50742664 28.65135239 49.73686786 37.54828706 51 47 C47.11130982 43.27333858 43.77943254 39.32943674 40.5 35.0625 C39.11571127 33.27300631 37.72896907 31.48570804 36.33422852 29.7043457 C35.09014748 28.11515453 33.85525289 26.51878371 32.62109375 24.921875 C29.55165029 21.50020032 26.26170822 18.88983785 22.5625 16.1875 C21.86962891 15.67340576 21.17675781 15.15931152 20.46289062 14.62963867 C15.17454688 10.74939464 9.74427203 7.12805633 4.16625977 3.6784668 C2.76340141 2.8079752 1.37931713 1.90733205 0 1 C0 0.67 0 0.34 0 0 Z " fill="#E2E2E2" transform="translate(356,330)"/>
</svg>
